<svg fill="none" role="img" viewBox="0 0 180 180" xmlns="http://www.w3.org/2000/svg"><title>Model Context Protocol</title><path d="M23.6 85.25 86.2 22.65c8.64-8.64 22.66-8.64 31.3 0 8.64 8.64 8.64 22.66 0 31.3l-47.28 47.28" stroke="#ffffff" stroke-width="11.07" stroke-linecap="round"/><path d="M70.88 100.58 117.5 53.95c8.65-8.64 22.66-8.64 31.3 0l.33.33c8.64 8.64 8.64 22.66 0 31.3l-56.62 56.62c-2.88 2.88-2.88 7.55 0 10.43l11.63 11.63" stroke="#ffffff" stroke-width="11.07" stroke-linecap="round"/><path d="M101.85 38.3 55.55 84.6c-8.64 8.64-8.64 22.66 0 31.3 8.64 8.64 22.66 8.64 31.3 0l46.3-46.3" stroke="#ffffff" stroke-width="11.07" stroke-linecap="round"/></svg>
